<svg width="24" height="24" viewBox="0 0 24 24" fill="none" xmlns="http://www.w3.org/2000/svg">
<g id="google-maps-2020-icon 1">
<path id="Vector" d="M13.8607 1.33666C13.0969 1.09571 12.2786 0.963867 11.433 0.963867C8.96438 0.963867 6.75489 2.07771 5.27734 3.83257L9.07349 7.02406L13.8607 1.33666Z" fill="#1A73E8"/>
<path id="Vector_2" d="M5.27694 3.83276C4.05987 5.27831 3.39319 7.10767 3.39478 8.99734C3.39478 10.5067 3.69483 11.7342 4.19038 12.8299L9.07309 7.02425L5.27694 3.83276Z" fill="#EA4335"/>
<path id="Vector_3" d="M11.4321 5.92851C12.0182 5.92905 12.5918 6.09703 13.0856 6.41269C13.5794 6.72834 13.9727 7.17852 14.2192 7.7102C14.4657 8.24188 14.5551 8.83292 14.4769 9.41373C14.3988 9.99454 14.1563 10.5409 13.778 10.9885L18.5607 5.30112C17.579 3.40974 15.8866 1.98548 13.8553 1.34131L9.07715 7.02871C9.36505 6.68392 9.72524 6.40665 10.1322 6.21653C10.5392 6.0264 10.9829 5.92808 11.4321 5.92851Z" fill="#4285F4"/>
<path id="Vector_4" d="M11.4327 12.0752C9.73689 12.0752 8.35937 10.6977 8.35937 9.0019C8.35738 8.27985 8.61196 7.58058 9.07768 7.02881L4.19043 12.8344C5.02695 14.6847 6.41356 16.1714 7.84109 18.0445L13.7785 10.9886C13.4901 11.3295 13.1307 11.6032 12.7256 11.7909C12.3204 11.9786 11.8792 12.0756 11.4327 12.0752Z" fill="#FBBC04"/>
<path id="Vector_5" d="M13.6602 19.9674C16.3425 15.7757 19.4658 13.8708 19.4658 8.99721C19.4658 7.6606 19.1384 6.40129 18.561 5.29199L7.84546 18.0443C8.30009 18.6399 8.75926 19.2718 9.2048 19.9719C10.8324 22.4906 10.3823 23.9999 11.4325 23.9999C12.4827 23.9999 12.0326 22.486 13.6602 19.9674Z" fill="#34A853"/>
</g>
</svg>
